/* XPM */
static char *result[] = {
/* columns rows colors chars-per-pixel */
"64 64 10 1 ",
"  c #422C4F",
". c #422D4F",
"X c #432D4F",
"o c #553857",
"O c #563857",
"+ c #563858",
"@ c #54475C",
"# c #54485C",
"$ c #55485C",
"% c #55485D",
/* pixels */
"  ############OO  ########@@@@OO  @@@@@@@@@@@@OO  @@@@@@@@@@@@oo",
"  ############OO  ########@@@@OO  @@@@@@@@@@@@OO  @@@@@@@@@@@@oo",
"  ++              OO              OO              OO            ",
"  ++              OO              OO              OO            ",
"  ++              OO              OO              OO            ",
"  ++              OO              OO              OO            ",
"                                                                ",
"                                                                ",
"######++  ############OO  ##########@@OO  @@@@@@@@@@@@OO  OO@@@@",
"######++  ############OO  ##########@@OO  @@@@@@@@@@@@OO  OO@@@@",
"          ++              OO              OO              OO    ",
"          ++              OO              OO              OO    ",
"..        ++              OO              OO              OO    ",
"..        ++              OO              OO              OO    ",
"....                                                            ",
"....                                                            ",
"..############++  ############OO  ############OO  @@@@@@@@@@@@OO",
"..############++  ############OO  ############OO  @@@@@@@@@@@@OO",
"..++......        ++              OO              OO            ",
"..++......        ++              OO              OO            ",
"..++........      ++              OO              OO            ",
"..++........      ++              OO              OO            ",
"..............                                                  ",
"..............                                                  ",
"######++..############++  ############OO  ############OO  OO@@@@",
"######++..############++  ############OO  ############OO  OO@@@@",
"..........++......        ++              OO              OO    ",
"..........++......        ++              OO              OO    ",
"XXXX......++..........    ++              OO              OO    ",
"XXXX......++..........    ++              OO              OO    ",
"XXXXXX..................                                        ",
"XXXXXX..................                                        ",
"XX$$##########++..############++  ############OO  ############OO",
"XX$$##########++..############++  ############OO  ############OO",
"XX++XXXXXX........++..........    ++              OO            ",
"XX++XXXXXX........++..........    ++              OO            ",
"XX++XXXXXXXX......++............  ++              OO            ",
"XX++XXXXXXXX......++............  ++              OO            ",
"XXXXXXXXXXXXXXXX..................                              ",
"XXXXXXXXXXXXXXXX..................                              ",
"%%%%%%++XX$$$$########++..############++  ############OO  OO####",
"%%%%%%++XX$$$$########++..############++  ############OO  OO####",
"XXXXXXXXXX++XXXXXXXX......++............  ++              OO    ",
"XXXXXXXXXX++XXXXXXXX......++............  ++              OO    ",
"XXXXXXXXXX++XXXXXXXXXXXX..++..............++              ++    ",
"XXXXXXXXXX++XXXXXXXXXXXX..++..............++              ++    ",
"XXXXXXXXXXXXXXXXXXXXXXXXXX....................                  ",
"XXXXXXXXXXXXXXXXXXXXXXXXXX....................                  ",
"XX%%%%%%%%%%%%++XX%%%%$$$$####++..############++..############++",
"XX%%%%%%%%%%%%++XX%%%%$$$$####++..############++..############++",
"XX++XXXXXXXXXXXXXX++XXXXXXXXXXXX..++..............++..          ",
"XX++XXXXXXXXXXXXXX++XXXXXXXXXXXX..++..............++..          ",
"XX++XXXXXXXXXXXXXX++XXXXXXXXXXXXXX++..............++....        ",
"XX++XXXXXXXXXXXXXX++XXXXXXXXXXXXXX++..............++....        ",
"XXXXXXXXXXXXXXXXXXXXXXXXXXXXXXXXXXXXXX......................    ",
"XXXXXXXXXXXXXXXXXXXXXXXXXXXXXXXXXXXXXX......................    ",
"%%%%%%++XX%%%%%%%%%%%%++XX%%%%%%%%$$$$++XX############++..++####",
"%%%%%%++XX%%%%%%%%%%%%++XX%%%%%%%%$$$$++XX############++..++####",
"XXXXXXXXXX++XXXXXXXXXXXXXX++XXXXXXXXXXXXXX++..............++....",
"XXXXXXXXXX++XXXXXXXXXXXXXX++XXXXXXXXXXXXXX++..............++....",
"XXXXXXXXXX++XXXXXXXXXXXXXX++XXXXXXXXXXXXXX++XXXX..........++....",
"XXXXXXXXXX++XXXXXXXXXXXXXX++XXXXXXXXXXXXXX++XXXX..........++....",
"XXXXXXXXXXXXXXXXXXXXXXXXXXXXXXXXXXXXXXXXXXXXXXXXXXXX............",
"XXXXXXXXXXXXXXXXXXXXXXXXXXXXXXXXXXXXXXXXXXXXXXXXXXXX............"
};
