/* XPM */
static char *eebd5afbde5549229dff7465ba351948LXHmefaeEzYy018c[] = {
/* columns rows colors chars-per-pixel */
"64 64 13 1 ",
"  c #000406",
". c #351B36",
"X c #4B1E27",
"o c #693029",
"O c #422C4F",
"+ c #432D4F",
"@ c #563857",
"# c #563858",
"$ c #54475C",
"% c #54485C",
"& c #50436F",
"* c #823E23",
"= c #777E9C",
/* pixels */
"OO%%%%%%%%%%%%@@OO%%%%%%%%$$$$@@OO$$$$$$$$$$$$@@OO$$$$$$$$$$$$@@",
"OO%%%%%%%%%%%%@@OO%%%%%%%%$$$$@@OO$$$$$$$$$$$$@@OO$$$$$$$$$$$$@@",
"OO##OOOOOOOOOOOOOO@@OOOOOOOOOOOOOO@@OOOOOOOOOOOOOO@@OOOOOOOOOOOO",
"OO##OOOOOOOOOOOOOO@@OOOOOOOOOOOOOO@@OOOOOOOOOOOOOO@@OOOOOOOOOOOO",
"OO##OOOOOOOOOOOOOO@@OOOOOOOOOOOOOO@@OOOOOOOOOOOOOO@@OOOOOOOOOOOO",
"OO##OOOOOOOOOOOOOO@@OOOOOOOOOOOOOO@@OOOOOOOOOOOOOO@@OOOOOOOOOOOO",
"OOOOOOOOOOOOOOOOOOOOOOOOOOOOOOOOOOOOOOOOOOOOOOOOOOOOOOOOOOOOOOOO",
"OOOOOOOOOOOOOOOOOOOOOOOOOOOOOOOOOOOOOOOOOOOOOOOOOOOOOOOOOOOOOOOO",
"%%%%%%##OO%%%%%%%%%%%%@@OO%%%%%%%%%%$$@@OO$$$$$$$$$$$$@@OO@@$$$$",
"%%%%%%##OO%%%%%%%%%%%%@@OO%%%%%%%%%%$$@@OO$$$$$$$$$$$$@@OO@@$$$$",
"OOOOOOOOOO##OOOOOOOOOOOOOO@@OOOOOOOOOOOOOO@@OOOOOOOOOOOOOO@@OOOO",
"OOOOOOOOOO##OOOOOOOOOOOOOO@@OOOOOOOOOOOOOO@@OOOOOOOOOOOOOO@@OOOO",
"OOOOOOOOOO##OOOOOOOOOOOOOO@@OOOOOOOOOOOOOO@@OOOOOOOOOOOOOO@@OOOO",
"OOOOOOOOOO##OOOOOOOOOOOOOO@@OOOOOOOOOOOOOO@@OOOOOOOOOOOOOO@@OOOO",
"OOOOOOOOOOOOOOOOOOOOOOOOOOOOOOOOOOOOOOOOOOOOOOOOOOOOOOOOOOOOOOOO",
"OOOOOOOOOOOOOOOOOOOOOOOOOOOOOOOOOOOOOOOOOOOOOOOOOOOOOOOOOOOOOOOO",
"OO%%%%%%%%%%%%##OO%%%%%%%%%%%%@@OO%%%%%%%%%%%%@@OO$$$$$$$$$$$$@@",
"OO%%%%%%%%%%%%##OO%%%%%%%%%%%%@@OO%%%%%%%%%%%%@@OO$$$$$$$$$$$$@@",
"OO##OOOOOOOOOOOOOO##OOOOOOOOOOOOOO@@OOOOOOOOOOOOOO@@OOOOOOOOOOOO",
"OO##OOOOOOOOOOOOOO##OOOOOOOOOOOOOO@@OOOOOOOOOOOOOO@@OOOOOOOOOOOO",
"OO##OOoo**XX**oo**XXoo**ooXX**    **XX**oo**XXoo**ooXX**ooOOOOOO",
"OO##OOoo**XX**oo**XXoo**ooXX**    **XX**oo**XXoo**ooXX**ooOOOOOO",
"OOOOOOoo**XX**oo**XXoo**ooXX**    **XX**oo**XXoo**ooXX**ooOOOOOO",
"OOOOOOoo**XX**oo**XXoo**ooXX**    **XX**oo**XXoo**ooXX**ooOOOOOO",
"%%%%%%oo**XX**oo**XXoo**ooXX**    **XX**oo**XXoo**ooXX**oo@@$$$$",
"%%%%%%oo**XX**oo**XXoo**ooXX**    **XX**oo**XXoo**ooXX**oo@@$$$$",
"OOOOOOoo**XX**oo**XXoo**ooXX**    **XX**oo**XXoo**ooXX**oo@@OOOO",
"OOOOOOoo**XX**oo**XXoo**ooXX**    **XX**oo**XXoo**ooXX**oo@@OOOO",
"OOOOOOoo**XX**oo**XXoo**ooXX        XX**oo**XXoo**ooXX**oo@@OOOO",
"OOOOOOoo**XX**oo**XXoo**ooXX        XX**oo**XXoo**ooXX**oo@@OOOO",
"OOOOOO....................  ========  ....................OOOOOO",
"OOOOOO....................  ========  ....................OOOOOO",
"OO%%%%==================  ==        ==  ==================%%%%@@",
"OO%%%%==================  ==        ==  ==================%%%%@@",
"OO##OO&&&&&&&&&&&&&&&&&&  &&        &&  &&&&&&&&&&&&&&&&&&OOOOOO",
"OO##OO&&&&&&&&&&&&&&&&&&  &&        &&  &&&&&&&&&&&&&&&&&&OOOOOO",
"OO##OO..................  &&        &&  ..................OOOOOO",
"OO##OO..................  &&        &&  ..................OOOOOO",
"OOOOOOoo**XX**oo**XXoo  ================  **XXoo**ooXX**ooOOOOOO",
"OOOOOOoo**XX**oo**XXoo  ================  **XXoo**ooXX**ooOOOOOO",
"%%%%%%oo**XX**oo**XXoo  &&............&&  **XXoo**ooXX**oo@@%%%%",
"%%%%%%oo**XX**oo**XXoo  &&............&&  **XXoo**ooXX**oo@@%%%%",
"OOOOOOoo**XX**oo**XXoo  &&..&&&&&&&&..&&  **XXoo**ooXX**oo@@OOOO",
"OOOOOOoo**XX**oo**XXoo  &&..&&&&&&&&..&&  **XXoo**ooXX**oo@@OOOO",
"OOOOOOoo**XX**oo**XXoo  &&..&&&&..&&..&&  **XXoo**ooXX**oo##OOOO",
"OOOOOOoo**XX**oo**XXoo  &&..&&&&..&&..&&  **XXoo**ooXX**oo##OOOO",
"OOOOOOoo**XX**oo**XXoo  &&..&&..&&&&..&&  **XXoo**ooXX**ooOOOOOO",
"OOOOOOoo**XX**oo**XXoo  &&..&&..&&&&..&&  **XXoo**ooXX**ooOOOOOO",
"OO%%%%oo**XX**oo**XXoo  &&..&&&&&&&&..&&  **XXoo**ooXX**oo%%%%##",
"OO%%%%oo**XX**oo**XXoo  &&..&&&&&&&&..&&  **XXoo**ooXX**oo%%%%##",
"OO##OO................  &&............&&  ................OOOOOO",
"OO##OO................  &&............&&  ................OOOOOO",
"OO##OO================  &&&&&&&&&&&&&&&&  ================OOOOOO",
"OO##OO================  &&&&&&&&&&&&&&&&  ================OOOOOO",
"OOOOOO&&&&&&&&&&&&&&&&&&                &&&&&&&&&&&&&&&&&&OOOOOO",
"OOOOOO&&&&&&&&&&&&&&&&&&                &&&&&&&&&&&&&&&&&&OOOOOO",
"%%%%%%........................    ........................##%%%%",
"%%%%%%........................    ........................##%%%%",
"OOOOOOoo**XX**oo**XXoo**ooXX**    **XX**oo**XXoo**ooXX**oo##OOOO",
"OOOOOOoo**XX**oo**XXoo**ooXX**    **XX**oo**XXoo**ooXX**oo##OOOO",
"OOOOOOoo**XX**oo**XXoo**ooXX**    **XX**oo**XXoo**ooXX**oo##OOOO",
"OOOOOOoo**XX**oo**XXoo**ooXX**    **XX**oo**XXoo**ooXX**oo##OOOO",
"OOOOOOoo**XX**oo**XXoo**ooXX**    **XX**oo**XXoo**ooXX**ooOOOOOO",
"OOOOOOoo**XX**oo**XXoo**ooXX**    **XX**oo**XXoo**ooXX**ooOOOOOO"
};
