/* XPM */
static char *_a9ea697a6ea433db30584ffbb45ae07prmbPNsIeX4N7UZz[] = {
/* columns rows colors chars-per-pixel */
"16 144 9 1 ",
"  c None",
". c #000304",
"X c #000406",
"o c #BD6A31",
"O c #C06A20",
"+ c #E3B237",
"@ c #E1AF49",
"# c #E4E65D",
"$ c #E2E36A",
/* pixels */
"    XXXXXXXX    ",
"    XXXXXXXX    ",
"  XX@@$$$$$$XX  ",
"  XX@@$$$$$$XX  ",
"XX@@oooooooo$$XX",
"XX@@oooooooo$$XX",
"XX@@oo@@$$oo$$XX",
"XX@@oo@@$$oo$$XX",
"XX@@oo@@@@oo$$XX",
"XX@@oo@@@@oo$$XX",
"XX@@oo@@@@oo$$XX",
"XX@@oo@@@@oo$$XX",
"XX@@oooooooo@@XX",
"XX@@oooooooo@@XX",
"  XX@@@@@@@@XX  ",
"  XX@@@@@@@@XX  ",
"    XXXXXXXX    ",
"    XXXXXXXX    ",
"    ........    ",
"    ........    ",
"  ..OO++####..  ",
"  ..OO++####..  ",
"..OO++OOOOOO##..",
"..OO++OOOOOO##..",
"..OO++OO##OO##..",
"..OO++OO##OO##..",
"..OO++OO++OO##..",
"..OO++OO++OO##..",
"..OO++OO++OO##..",
"..OO++OO++OO##..",
"..OO++OOOOOO++..",
"..OO++OOOOOO++..",
"  ..OO++++++..  ",
"  ..OO++++++..  ",
"    ........    ",
"    ........    ",
"      ......    ",
"      ......    ",
"    ..OO++##..  ",
"    ..OO++##..  ",
"  ..OO++OOOO##..",
"  ..OO++OOOO##..",
"  ..OO++OOOO##..",
"  ..OO++OOOO##..",
"  ..OO++OOOO##..",
"  ..OO++OOOO##..",
"  ..OO++OOOO##..",
"  ..OO++OOOO##..",
"  ..OO++OOOO++..",
"  ..OO++OOOO++..",
"    ..OO++++..  ",
"    ..OO++++..  ",
"      ......    ",
"      ......    ",
"      ....      ",
"      ....      ",
"    ..OO##..    ",
"    ..OO##..    ",
"  ..OO++OO##..  ",
"  ..OO++OO##..  ",
"  ..OO++OO##..  ",
"  ..OO++OO##..  ",
"  ..OO++OO##..  ",
"  ..OO++OO##..  ",
"  ..OO++OO##..  ",
"  ..OO++OO##..  ",
"  ..OO++OO++..  ",
"  ..OO++OO++..  ",
"    ..OO++..    ",
"    ..OO++..    ",
"      ....      ",
"      ....      ",
"      ....      ",
"      ....      ",
"    ..OO++..    ",
"    ..OO++..    ",
"    ..OO++..    ",
"    ..OO++..    ",
"    ..OO++..    ",
"    ..OO++..    ",
"    ..OO++..    ",
"    ..OO++..    ",
"    ..OO++..    ",
"    ..OO++..    ",
"    ..OO++..    ",
"    ..OO++..    ",
"    ..OO++..    ",
"    ..OO++..    ",
"      ....      ",
"      ....      ",
"      ....      ",
"      ....      ",
"    ..##OO..    ",
"    ..##OO..    ",
"  ..++OO##OO..  ",
"  ..++OO##OO..  ",
"  ..++OO##OO..  ",
"  ..++OO##OO..  ",
"  ..++OO##OO..  ",
"  ..++OO##OO..  ",
"  ..++OO##OO..  ",
"  ..++OO##OO..  ",
"  ..++OO++OO..  ",
"  ..++OO++OO..  ",
"    ..++OO..    ",
"    ..++OO..    ",
"      ....      ",
"      ....      ",
"      ......    ",
"      ......    ",
"    ..++##OO..  ",
"    ..++##OO..  ",
"  ..++OOOO##OO..",
"  ..++OOOO##OO..",
"  ..++OOOO##OO..",
"  ..++OOOO##OO..",
"  ..++OOOO##OO..",
"  ..++OOOO##OO..",
"  ..++OOOO##OO..",
"  ..++OOOO##OO..",
"  ..++OOOO++OO..",
"  ..++OOOO++OO..",
"    ..++++OO..  ",
"    ..++++OO..  ",
"      ......    ",
"      ......    ",
"    ........    ",
"    ........    ",
"  ..++####OO..  ",
"  ..++####OO..  ",
"..++OOOOOO##OO..",
"..++OOOOOO##OO..",
"..++OO##OO##OO..",
"..++OO##OO##OO..",
"..++OO++OO##OO..",
"..++OO++OO##OO..",
"..++OO++OO##OO..",
"..++OO++OO##OO..",
"..++OOOOOO++OO..",
"..++OOOOOO++OO..",
"  ..++++++OO..  ",
"  ..++++++OO..  ",
"    ........    ",
"    ........    "
};
