/* XPM */
static char *dffc972e9d6c47a8830e5be93fd5a71dIrylYvajqJIEfqhM[] = {
/* columns rows colors chars-per-pixel */
"32 128 17 1 ",
"  c None",
". c #1D1D1C",
"X c #3D253B",
"o c #3E373D",
"O c #4D0A1A",
"+ c #4D1446",
"@ c #6D1D51",
"# c #625353",
"$ c #AC162D",
"% c #D31212",
"& c #F26E26",
"* c #8B1842",
"= c #897A71",
"- c #E84444",
"; c #6AC81F",
": c #049050",
"> c #C1F567",
/* pixels */
"                                ",
"                                ",
"      ..    ........    ..      ",
"      ..    ........    ..      ",
"    ..==....&&&&&&&&....==..    ",
"    ..==....&&&&&&&&....==..    ",
"    ..##oo&&----------oo##..    ",
"    ..##oo&&----------oo##..    ",
"    ..oo&&--%%$$OOOO----oo..    ",
"    ..oo&&--%%$$OOOO----oo..    ",
"    ..&&--%%$$OO;;;;OO----..    ",
"    ..&&--%%$$OO;;;;OO----..    ",
"    ..--%%$$OO;;::>>;;OO%%..    ",
"    ..--%%$$OO;;::>>;;OO%%..    ",
"    ..$$%%$$OO;;::::;;OO%%..    ",
"    ..$$%%$$OO;;::::;;OO%%..    ",
"    ..**%%%%$$OO;;;;OO$$%%..    ",
"    ..**%%%%$$OO;;;;OO$$%%..    ",
"    ..@@**%%%%$$OOOO**%%XX..    ",
"    ..@@**%%%%$$OOOO**%%XX..    ",
"      ..@@**%%%%****%%**..      ",
"      ..@@**%%%%****%%**..      ",
"        ..**OO%%**%%OO@@..      ",
"        ..**OO%%**%%OO@@..      ",
"        ..@@OO**OO**OO..        ",
"        ..@@OO**OO**OO..        ",
"        ..++..++..++..          ",
"        ..++..++..++..          ",
"          ..  ..  ..            ",
"          ..  ..  ..            ",
"                                ",
"                                ",
"                                ",
"                                ",
"                                ",
"                                ",
"      ..    ........    ..      ",
"      ..    ........    ..      ",
"    ..==....&&&&&&&&....==..    ",
"    ..==....&&&&&&&&....==..    ",
"    ..##oo&&----------oo##..    ",
"    ..##oo&&----------oo##..    ",
"    ..oo&&--%%$$OOOO----oo..    ",
"    ..oo&&--%%$$OOOO----oo..    ",
"    ..&&--%%$$OO;;;;OO----..    ",
"    ..&&--%%$$OO;;;;OO----..    ",
"    ..--%%$$OO;;::>>;;OO%%..    ",
"    ..--%%$$OO;;::>>;;OO%%..    ",
"    ..$$%%$$OO;;::::;;OO%%..    ",
"    ..$$%%$$OO;;::::;;OO%%..    ",
"    ..**%%%%$$OO;;;;OO$$%%..    ",
"    ..**%%%%$$OO;;;;OO$$%%..    ",
"    ..@@**%%%%$$OOOO**%%XX..    ",
"    ..@@**%%%%$$OOOO**%%XX..    ",
"      ..@@**%%%%****%%**..      ",
"      ..@@**%%%%****%%**..      ",
"        ..**OO%%**%%OO@@..      ",
"        ..**OO%%**%%OO@@..      ",
"        ..@@OO**OO**OO..        ",
"        ..@@OO**OO**OO..        ",
"        ..++..++..++..          ",
"        ..++..++..++..          ",
"          ..  ..  ..            ",
"          ..  ..  ..            ",
"                                ",
"                                ",
"      ..    ........    ..      ",
"      ..    ........    ..      ",
"    ..==....&&&&&&&&....==..    ",
"    ..==....&&&&&&&&....==..    ",
"    ..##oo&&----------oo##..    ",
"    ..##oo&&----------oo##..    ",
"    ..oo&&--%%$$OOOO----oo..    ",
"    ..oo&&--%%$$OOOO----oo..    ",
"    ..&&--%%$$OO****OO----..    ",
"    ..&&--%%$$OO****OO----..    ",
"    ..--%%$$OO********OO%%..    ",
"    ..--%%$$OO********OO%%..    ",
"    ..$$%%$$OO@@****@@OO%%..    ",
"    ..$$%%$$OO@@****@@OO%%..    ",
"    ..**%%%%$$OO@@@@OO$$%%..    ",
"    ..**%%%%$$OO@@@@OO$$%%..    ",
"    ..@@**%%%%$$OOOO**%%XX..    ",
"    ..@@**%%%%$$OOOO**%%XX..    ",
"      ..@@**%%%%****%%**..      ",
"      ..@@**%%%%****%%**..      ",
"        ..**OO%%**%%OO@@..      ",
"        ..**OO%%**%%OO@@..      ",
"        ..@@OO**OO**OO..        ",
"        ..@@OO**OO**OO..        ",
"        ..++..++..++..          ",
"        ..++..++..++..          ",
"          ..  ..  ..            ",
"          ..  ..  ..            ",
"                                ",
"                                ",
"      ..    ........    ..      ",
"      ..    ........    ..      ",
"    ..==....&&&&&&&&....==..    ",
"    ..==....&&&&&&&&....==..    ",
"    ..##oo&&----------oo##..    ",
"    ..##oo&&----------oo##..    ",
"    ..oo&&--%%$$OOOO----oo..    ",
"    ..oo&&--%%$$OOOO----oo..    ",
"    ..&&--%%$$OO;;;;OO----..    ",
"    ..&&--%%$$OO;;;;OO----..    ",
"    ..--%%$$OO;;::>>;;OO%%..    ",
"    ..--%%$$OO;;::>>;;OO%%..    ",
"    ..$$%%$$OO;;::::;;OO%%..    ",
"    ..$$%%$$OO;;::::;;OO%%..    ",
"    ..**%%%%$$OO;;;;OO$$%%..    ",
"    ..**%%%%$$OO;;;;OO$$%%..    ",
"    ..@@**%%%%$$OOOO**%%XX..    ",
"    ..@@**%%%%$$OOOO**%%XX..    ",
"      ..@@**%%%%****%%**..      ",
"      ..@@**%%%%****%%**..      ",
"        ..**OO%%**%%OO@@..      ",
"        ..**OO%%**%%OO@@..      ",
"        ..@@OO**OO**OO..        ",
"        ..@@OO**OO**OO..        ",
"        ..++..++..++..          ",
"        ..++..++..++..          ",
"          ..  ..  ..            ",
"          ..  ..  ..            ",
"                                ",
"                                ",
"                                ",
"                                "
};
