/* XPM */
static char *_1ebee9c30e64279e0019aef91a69ee7irymVjLxjs51WWMR[] = {
/* columns rows colors chars-per-pixel */
"32 184 20 1 ",
"  c None",
". c gray3",
"X c #101008",
"o c #291331",
"O c #441931",
"+ c #441F52",
"@ c #722A53",
"# c #704048",
"$ c #E23636",
"% c #B06020",
"& c #812F5C",
"* c #906068",
"= c #F0B858",
"- c #6D2792",
"; c #8735AC",
": c #B55F89",
"> c #A87880",
", c #C09098",
"< c #D0A0A8",
"1 c #E1A7C8",
/* pixels */
"    .                           ",
"    .-                          ",
"    .-                   .....  ",
"    .;-                ..;;;#   ",
"    .;;-              .;;**#    ",
"    .;;;-            .;*>>*#    ",
"    .;;;;-          .;*>,,*#    ",
"    .;;;;;-        .;#*,<<#     ",
"     .;;;--       .;#*><<,#     ",
"     .;;----      .;*>,,>*#     ",
"     .;---++     .;#>,>**-+     ",
"      ..++;;-   ..;#**+-->#     ",
"     .=.;;;;-  .=.;+++#*>#      ",
"     ...+--;-  ...;#*>>>>#      ",
"       .;+---   .;#+><<<#       ",
"       .;-++--  .;#*+><<#       ",
"       .;-;-+- .;#**-*>#        ",
"      ...+-;-+ ...>*#-##        ",
"      .;..+;- .--.,>*#+         ",
"      .-;+....+11.,,>#          ",
"      ..--;;---1.>,>#           ",
"       ..$%-$%-..*>#            ",
"        .=%-=%+.###             ",
"        .-X;X-+.#.              ",
"         X---+.++.              ",
"          ....+++.              ",
"            .;;-+.              ",
"            .--++.              ",
"             .+..+.             ",
"             .o.oo.             ",
"             .O.OO.             ",
"            .O.O&O.             ",
"            .:.:.:.             ",
"            .@...@.             ",
"             ..  ..             ",
"                                ",
"                                ",
"                                ",
"                                ",
"                                ",
"                                ",
"                                ",
"                                ",
"                                ",
"                                ",
"                                ",
"                                ",
"                                ",
"                                ",
"                                ",
"     .                          ",
"    .;                         .",
"    .;                        .;",
"   .;;-                     ..;#",
"   .;-;                  ...;;*#",
"   .;-;-             ....;;;#*# ",
"   .;-;;-          ..;;;;#*>>># ",
"   .;-;;;-       ..;;#**>>,,,#  ",
"   ...----      .=.++#*>,<<<>#  ",
"   .=.+++++     ..;+*+++#*>>#   ",
"    .;+-;;-      .;+>,>*--##    ",
"     .;++;;-    .;*#+><,>*-     ",
"      ...+--   ...**-*><,*#     ",
"      .;..+-  .--.*>*-**##      ",
"      .-;+....+11.,,>*+#        ",
"      ..--;;---1..,>*#          ",
"       ..$%-$%-..***#           ",
"        .=%-=%+.####            ",
"        .-X;X-+.+.              ",
"         X---+.++.              ",
"          ....+++.              ",
"            .;;-+.              ",
"            .--++.              ",
"             .+..+.             ",
"             .o.oo.             ",
"             .O.OO.             ",
"            .O.O&O.             ",
"            .:.:.:.             ",
"            .@...@.             ",
"             ..  ..             ",
"                                ",
"                                ",
"                                ",
"                                ",
"                                ",
"                                ",
"                                ",
"                                ",
"                                ",
"                                ",
"                                ",
"                                ",
"                                ",
"                                ",
"                                ",
"                                ",
"                                ",
"                                ",
"                                ",
"                                ",
"                                ",
"                                ",
"                                ",
"                                ",
"                                ",
"                                ",
"                                ",
"      ..       ...              ",
"      .;.     .--.              ",
"      .-;+....+11.              ",
"      ..--;;---1..              ",
"       ..$%-$%-..               ",
"        .=%-=%+..               ",
"        .-X;X-+.;--             ",
"         X---+...;--            ",
"        ;-....++.;---           ",
"       ;--.#.--++.;---          ",
"      ;-;.**.;;-+.;-;;-         ",
"     ;;-;.# .+-++.;-;---        ",
"     ;-;.#   .+...;+--+++       ",
"    ;;...    .o.o...-;;;-+      ",
"   ;;-.=.   .O.Oo.:.;;;;;+      ",
"   ;-+..    .:.:....+;;;;-+     ",
"   ;+;.     .@...@..;+;;;;+     ",
"   -;;.      ..  ...;;+;;;+     ",
"   +;;.            .;;;+;--+    ",
"   ;;;.            .;;;;+--+    ",
"   ;;-.             .;;;;+-+    ",
"   ;;.              .;;;;-++    ",
"   ;;.              .;-;---+    ",
"   -;.               .;---+     ",
"   -;+               .;---+     ",
"   -;+               .;+-++     ",
"   -;+                .+-+      ",
"   ;+                 .+++      ",
"   ;+                  .++      ",
"   +                   .+       ",
"                        .       ",
"                                ",
"                                ",
"                                ",
"                                ",
"                                ",
"                                ",
"                                ",
"                                ",
"                                ",
"                                ",
"                                ",
"                                ",
"                                ",
"                                ",
"                                ",
"                                ",
"      ..       ...              ",
"      .;.     .--.              ",
"      .-;+....+11.              ",
"      ..--;;---1..              ",
"       ..$%-$%-..               ",
"        .=%-=%+..               ",
"        .-X;X-+.;-;             ",
"        ;X---+...;--;           ",
"      ;---....++..;-;;-         ",
"     ;--;.##.--++.;-;-++        ",
"    ;--;.***.;;-+..;--;;-       ",
"   ;--...#  .+-++....;;;;-      ",
"   ---.=.    ++..+.=.---;;-     ",
"  -;--..     .o.oo...;;;-+-+    ",
"  ;-;.      .O.OoO.  .;;;;++    ",
" -;;-.      .:.:.:.  .;;;;;;+   ",
" ;-;.       .@...@.   .;;;;;+   ",
" ;;-.        ..  ..   .;-;;--+  ",
" ;-.                   .;----+  ",
" ;-.                   .;+--++  ",
" -.                     .-+-++  ",
" -.                      .-+++  ",
" -.                      .-+++  ",
" +                        .-++  ",
" +                        .-+   ",
" +                         .-   ",
"                           .-   ",
"                           .    ",
"                                ",
"                                "
};
