/* XPM */
static char *_c2ab884ee4d4fe3cc224c26b67aa9b5yyPhfX4OcnNkDCX8[] = {
/* columns rows colors chars-per-pixel */
"64 64 4 1 ",
"  c #2D1822",
". c #361C2F",
"X c #402235",
"o c #402939",
/* pixels */
"ooooooooooooooooooXX  XXooooooooooooooooooooooooXXXX  XXoooooooo",
"ooooooooooooooooooXX  XXooooooooooooooooooooooooXXXX  XXoooooooo",
"                      XX                              XX        ",
"                      XX                              XX        ",
"                      XX                              XX        ",
"                      XX                              XX        ",
"                      XX                              XX        ",
"                      XX                              XX        ",
"                      XX                              XX        ",
"                      XX                              XX        ",
"                      ..                              ..        ",
"                      ..                              ..        ",
"                      ..                              ..        ",
"                      ..                              ..        ",
"                                                                ",
"                                                                ",
"ooXX  XXooooooooooooooooooooooooooXX  XXoooooooooooooooooooooooo",
"ooXX  XXooooooooooooooooooooooooooXX  XXoooooooooooooooooooooooo",
"      XX                              XX                        ",
"      XX                              XX                        ",
"      XX                              XX                        ",
"      XX                              XX                        ",
"      XX                              XX                        ",
"      XX                              XX                        ",
"      XX                              XX                        ",
"      XX                              XX                        ",
"      ..                              ..                        ",
"      ..                              ..                        ",
"      ..                              ..                        ",
"      ..                              ..                        ",
"                                                                ",
"                                                                ",
"ooooooooooooooooooXX  XXooooooooooooooooooooooooooXX  XXoooooooo",
"ooooooooooooooooooXX  XXooooooooooooooooooooooooooXX  XXoooooooo",
"                      XX                              XX        ",
"                      XX                              XX        ",
"                      XX                              XX        ",
"                      XX                              XX        ",
"                      XX                              XX        ",
"                      XX                              XX        ",
"                      XX                              XX        ",
"                      XX                              XX        ",
"                      ..                              ..        ",
"                      ..                              ..        ",
"                      ..                              ..        ",
"                      ..                              ..        ",
"                                                                ",
"                                                                ",
"ooXX  XXooooooooooooooooooooooooooXX  XXoooooooooooooooooooooooo",
"ooXX  XXooooooooooooooooooooooooooXX  XXoooooooooooooooooooooooo",
"      XX                              XX                        ",
"      XX                              XX                        ",
"      XX                              XX                        ",
"      XX                              XX                        ",
"      XX                              XX                        ",
"      XX                              XX                        ",
"      XX                              XX                        ",
"      XX                              XX                        ",
"      ..                              ..                        ",
"      ..                              ..                        ",
"      ..                              ..                        ",
"      ..                              ..                        ",
"                                                                ",
"                                                                "
};
